# exported with NifSkope

mtllib DecoMainc1x1Wall01.mtl

# DecoMainc1x1Wall01:0

g DecoMainc1x1Wall01:0
usemtl Material.000001

v 128 -8 256
v -128 -8 256
v -128 -8 0
v 128 -8 0
v 128 -8 256
v 128 -2.1457672119140625e-05 256
v -128 -2.193450927734375e-05 256
v -128 -8 256
vt 1 0
vt -1.049041748046875e-05 0
vt -1.0550022125244141e-05 -1
vt 1 -1
vt 1 0.46875
vt 1 0.5
vt -1.049041748046875e-05 0.5
vt -1.049041748046875e-05 0.46875
vn -0.0039215688593685627 -1 -0.0039215688593685627
vn -0.0039215688593685627 -1 -0.0039215688593685627
vn -0.0039215688593685627 -1 -0.0039215688593685627
vn -0.0039215688593685627 -1 -0.0039215688593685627
vn -0.0039215688593685627 -0.0039215688593685627 1
vn -0.0039215688593685627 -0.0039215688593685627 1
vn -0.0039215688593685627 -0.0039215688593685627 1
vn -0.0039215688593685627 -0.0039215688593685627 1
f 1/1/1 2/2/2 3/3/3
f 3/3/3 4/4/4 1/1/1
f 5/5/5 6/6/6 7/7/7
f 7/7/7 8/8/8 5/5/5
